<svg id="Layer_1" data-name="Layer 1" xmlns="http://www.w3.org/2000/svg" viewBox="0 0 2400 313.77">
  <defs>
    <style>
      .cls-1 {
        fill: #2199d5;
      }
    </style>
  </defs>
  <title>CVS</title>
  <g>
    <path class="cls-1" d="M253,10.61c-9.15-8.93-20.36-12-33-9.48a35.86,35.86,0,0,0-18.7,10.24L160.63,52c-.66.65-1.31,1.3-2.07,2-.76-.77-1.42-1.31-2.07-2l-13-13c-9.36-9.37-18.62-18.73-28.09-28.1C100.8-3.37,78-3.48,63.67,10.78Q37.27,37,11,63.53A37.1,37.1,0,0,0,1,82.91a27.49,27.49,0,0,1-1,2.94v6.76a22.27,22.27,0,0,1,1,2.61c1.31,8.17,5.23,15,11.11,20.91q72.36,72.19,144.51,144.5a22.66,22.66,0,0,0,2,1.85c.87-.76,1.52-1.52,2.29-2.28l90.71-90.71c18.07-18.08,36.15-36.05,54.12-54.12a36.53,36.53,0,0,0,.4-51.65l-.08-.08c-17.53-17.86-35.17-35.61-53-53Zm776.22,161.27c-.76-17.86-7.63-32.88-21-44.86a91,91,0,0,0-33.43-18.84c-13.18-4.25-26.68-7.41-40-10.89-9.69-2.51-19.38-5-29-7.84a50.33,50.33,0,0,1-10-4.47,11.5,11.5,0,0,1-5.88-7.73c-1.63-7.08.22-15,9-18.62a28.17,28.17,0,0,1,3.92-1.31,55.76,55.76,0,0,1,26.13.55c9.37,2.5,15.14,8.49,17.43,17.86.21.65.32,1.3.54,2.07h75.36c-.66-3.92-1.09-7.52-1.75-11.11-4.35-21.89-16-39.1-35.5-50.86-12.08-7.29-25.37-11.32-39.2-13.61A188.62,188.62,0,0,0,912.49,0a159.58,159.58,0,0,0-31.36,3.27C869,5.81,857.5,9.84,846.93,16.38,833.39,24.76,823.16,36.13,817.27,51c-4.57,11.54-5.66,23.63-4.68,35.93a65,65,0,0,0,7,25.48c7.41,14.38,18.73,24.51,33.54,30.82a269.4,269.4,0,0,0,35.28,12c13.94,3.81,27.88,7.3,41.93,11a62.1,62.1,0,0,1,14.37,5.44c9.26,5.23,9.8,19.28,1.2,25.49a27.91,27.91,0,0,1-8.71,4.13,64.56,64.56,0,0,1-32.23-.1c-8.39-2.18-14.16-7.63-17.21-15.69-.65-1.63-1.09-3.26-1.63-5-.22-.77-.55-1.64-.76-2.4H807.8c.44,2.94.76,5.66,1.2,8.38a87.06,87.06,0,0,0,15.14,37.14c9.69,13.39,22.54,22.65,37.56,29,14.81,6.21,30.39,8.93,46.29,9.81,16.11.76,32.23.1,48.13-3.05,11.54-2.29,22.76-5.77,33.21-11.44,17.21-9.25,29.51-22.76,35.83-41.38a100.6,100.6,0,0,0,4-34.63ZM516.5,159.47a68,68,0,0,1-3.59,16c-4.58,11.76-12.74,19.71-25,23.19A53,53,0,0,1,467.66,200c-12.63-1.53-22.87-7.08-30.06-17.64a68.46,68.46,0,0,1-5.77-10.78c-3.7-8.82-5.23-18.19-6-27.66-1-13.94-.65-27.88,2.29-41.6a62.47,62.47,0,0,1,8.93-22.44,37.19,37.19,0,0,1,22.76-16,58.47,58.47,0,0,1,20.47-1c18,2.17,28.2,12.41,32.23,26.89.33,1.31.76,2.73,1,4,.44,2.29.77,4.58,1.2,6.86h75.56v-2a123.46,123.46,0,0,0-4.9-26.68c-7.84-26-23.52-45.73-47.91-58.26C523.69,6.69,509,3,493.74,1.13,484.49-.07,475.12-.07,465.86,0A137.49,137.49,0,0,0,426,6.47c-27.33,8.71-48.68,25.15-63.05,50.2-9.69,16.88-14.81,35.17-16.88,54.46a190.25,190.25,0,0,0-.11,39.42,147.77,147.77,0,0,0,8.49,37.35c9.37,24.83,25.16,44.43,48.24,57.72,16.77,9.69,35.07,14.59,54.34,16.33a175.19,175.19,0,0,0,36.27-.44A136.65,136.65,0,0,0,527,253.57c21.12-8.17,38-21.57,49.54-41.28A112.73,112.73,0,0,0,590,173.85c.76-4.68,1.19-9.47,1.85-14.37-4.36-.66-73.4-.55-75.36,0ZM743.33,7l-.32.33Q721,86.41,698.8,165.46c0,.22-.11.32-.22.54a1.52,1.52,0,0,1-.33.44c-.11.11-.11.11-.22.11s-.11,0-.32-.11L656.27,7H575c27.77,83,55.54,165.63,83.31,248.51h79.38Q779.49,131.37,821.27,7Zm1565,98.77c-1.09,3.27-2.18,6.54-3.38,9.8s-2.28,6.75-3.48,10.13-2.18,6.64-3.38,9.91-2.28,6.64-3.37,9.91-2.18,6.64-3.38,9.91-2.29,6.75-3.48,10.13-2.18,6.64-3.38,9.91-2.29,6.53-3.38,9.91-2.17,6.64-3.26,9.91-2,6.86-3.05,10.23-1.53,6.64-3.05,10.35l-.87-2.62c-2.07-6.53-3.81-13.06-6.1-19.38-10-28.86-20.26-57.61-30.38-86.46-.22-.55-.55-1.09-.76-1.53H2199.1c.33,1,.55,1.85.88,2.61q10.77,27.94,21.56,55.76c11,28.53,22,57.17,33.1,85.7a6.61,6.61,0,0,1,.11,5c-2,5.12-3.59,10.35-5.66,15.46a48.46,48.46,0,0,1-3.59,7.52,15.39,15.39,0,0,1-11,7.62,55.17,55.17,0,0,1-10.35.65c-3.59-.1-7.19-.87-11-1.3v26.46c1.31.22,2.51.54,3.6.76l9.69,1.63h12a13.73,13.73,0,0,1,2-.54c3-.65,6.2-1,9.25-1.85,9-2.4,15.58-8.17,20.58-15.9a97.19,97.19,0,0,0,9.48-19.71q30.54-83.79,61.09-167.48c.22-.77.44-1.42.76-2.4-11-.11-22-.11-33.21-.11ZM1877,134.53c-4.14-14.26-12.74-24.72-27-29.73a53,53,0,0,0-32.88-1c-12.64,3.6-22.22,11.22-29.52,22a33,33,0,0,1-2,2.83c-.76-1.42-1.19-2.29-1.63-3.16a41.72,41.72,0,0,0-24.07-21.23,46.71,46.71,0,0,0-17.75-2.4,49.35,49.35,0,0,0-35.93,17.21c-1.63,1.85-3,4-4.57,6.1a14.69,14.69,0,0,1-1.64,1.41V115.8c0-3.38,0-6.75-.11-10-5.22-.54-29.94-.32-31.9.22v149.5h32.67V167.31a43.84,43.84,0,0,1,3-17.1c5-12.41,16.77-21,30.82-20.36,10.46.54,18.08,6.42,21,16.55a45.6,45.6,0,0,1,1.41,12.2v93.53c0,1.09.11,2.18.11,3.38h32.78V167.2a46.87,46.87,0,0,1,1.74-13.94c4.36-14.92,16.56-24.07,31.37-23.3,10.56.54,18.51,6.53,21.56,16.66a37.93,37.93,0,0,1,1.52,11.65v97.35H1879c0-1,.11-1.85.11-2.72V153.37a61.82,61.82,0,0,0-2.29-18.84Zm-491.34,4.25c-4.25-16.55-13.94-28.21-30.17-34-7.62-2.72-15.68-3.26-23.74-2.83-12.52.76-23.52,5.12-32.56,14.16-2.5,2.5-4.68,5.33-7.08,8.06a13.29,13.29,0,0,1-1.3,1.19,1.09,1.09,0,0,0-.55-.21V47.3h-32.56c-.54,3.16-.43,206.36.11,208.32h32.34v-85.7a53.46,53.46,0,0,1,.77-10.34c2.28-12.31,8.71-21.46,20.47-26.46a37,37,0,0,1,20-2.29c11.32,1.63,19.6,8.82,22.1,19.71a52.31,52.31,0,0,1,1,10.89c.11,30.27,0,60.65,0,90.93,0,1.09.11,2.18.11,3.26,3.38.55,30.6.44,32.78-.21V156a61.1,61.1,0,0,0-1.74-17.2Zm776.32,70c-3,12.19-10.56,20.14-22.87,23.19a44,44,0,0,1-16.88.77,35.59,35.59,0,0,1-24.91-14.69,46.32,46.32,0,0,1-7.08-14.81,84.28,84.28,0,0,1-1.74-37.24,54.25,54.25,0,0,1,6.42-18.62c5.23-8.93,12.63-14.92,22.76-17.53a47,47,0,0,1,13-1.31c14.92.44,26.57,9.69,30.27,24.18.22.87.44,1.63.66,2.39,4.13.44,30.27.33,32.12-.22a5.65,5.65,0,0,0,0-1.3c-.33-1.64-.65-3.27-1.09-4.79-5.88-21.89-19.27-36.7-41.05-43.56a78.87,78.87,0,0,0-37.68-2.29q-32.34,5.55-49,33.87c-6.32,10.78-9.59,22.54-10.78,34.84a93,93,0,0,0,4.24,38.66c7.19,20.91,20.47,36.27,41.27,44.43a78.74,78.74,0,0,0,49.77,2.83c23.52-6.09,38.33-21,44-44.75a35.66,35.66,0,0,0,1.31-9.69H2163a40.16,40.16,0,0,1-1,5.66Zm-510-100.84c0-2.5,0-2.61-2.51-2.94a57.12,57.12,0,0,0-7.51-.44A39.22,39.22,0,0,0,1611,118.83c-2.61,3-4.79,6.64-7.18,9.91-.44.54-.55,1.52-2,1.41v-12c0-4,.1-8.06-.11-12.09-4.79-.54-30.06-.33-31.8.22V255.73h32.67v-3.37c0-24.5-.11-48.9.11-73.4a60.22,60.22,0,0,1,1.52-13.18c4.68-21.23,22.11-32.77,44.1-30.7,1.09.1,2.18.32,3.38.54A15.18,15.18,0,0,0,1652,134v-5c-.11-7.08-.11-14-.11-21Zm-439.07,10.24A56.24,56.24,0,0,0,1180,102.5a63.36,63.36,0,0,0-24.83,1.3c-11.76,3.16-21.12,10-28.64,19.49-.65.77-1,1.86-2.5,2.18-.22-3.26-.11-6.42-.11-9.69v-9.91h-31.8V311.38h16.33c5.45,0,10.89.22,16.56-.11V239.18l.65-.33c.54.77,1.2,1.42,1.74,2.18a48.56,48.56,0,0,0,27.44,17.53,66.89,66.89,0,0,0,22.87,1.31c13.83-1.41,25.92-6.64,35.83-16.33,7.73-7.52,12.85-16.56,16.44-26.68,3.71-10.46,5.23-21.24,5.56-32.35.32-12.74-1-25.26-5-37.35-3.7-10.89-9.26-20.8-17.64-29Zm-14.81,89.07a52.84,52.84,0,0,1-3.6,8.06c-7.51,13.07-19,18.41-33.65,17.21a40.5,40.5,0,0,1-8.93-1.64,34.1,34.1,0,0,1-20.79-16.44,53.22,53.22,0,0,1-6.65-20.25,87.4,87.4,0,0,1,1.85-34.42,47.59,47.59,0,0,1,6.76-15.13c6.53-9.58,15.57-14.59,27.11-15.47a43.34,43.34,0,0,1,13,.88,32.11,32.11,0,0,1,19.71,14,52.45,52.45,0,0,1,7.73,21.46c.76,5.33,1.09,10.67,1.63,16.11-.21,8.61-1.08,17.32-4.13,25.59Zm845,28.64a22,22,0,0,0-.22-2.28c-1.64.11-3.16.21-4.79.21-4.69,0-7.19-1.85-8.06-6.42a42.51,42.51,0,0,1-.66-8.28V156.2a82,82,0,0,0-1.41-16.33c-3.16-15.36-11.87-26.14-26.35-31.91a74.61,74.61,0,0,0-8.39-2.72c-9.47-2.51-19.27-2.94-29.07-2.62a76.85,76.85,0,0,0-21.13,3.27c-20.18,6.24-32.7,19.24-35.86,40.73-.21,1.85-.65,3.7-.11,5.66h30.6c.22-1.41.33-2.72.44-3.92,1.31-10.67,7.51-17.64,18.08-20.15a57.21,57.21,0,0,1,18.73-.87,33.86,33.86,0,0,1,12,3.49c5.33,2.94,8.82,7.29,9.69,13.39,1.2,8.17-1.31,13.4-8.82,16.66a25.05,25.05,0,0,1-5.45,1.86c-6.2,1.3-12.41,2.61-18.73,3.59a236.54,236.54,0,0,0-24.61,4.79c-8.06,2.18-15.79,5-22.65,9.8a36.8,36.8,0,0,0-15.14,21.89,58.13,58.13,0,0,0-1.3,15c.54,17.64,10.23,31.25,26.89,37.46,11,4.14,22.44,4.68,34,3.16a50.52,50.52,0,0,0,34.63-19.71c.44-.55,1-1.09,1.74-2,.33,1.31.66,2.29,1,3.27,2.29,8.93,8.06,14.38,16.88,16.66a53.89,53.89,0,0,0,18.73,1c2.51-.21,4.9-1.19,7.3-1.85a2.6,2.6,0,0,0,2.07-3c.11-5.66.11-11.21.11-16.88Zm-68.61-3a45.67,45.67,0,0,1-26.46,1.42c-9-2.18-14-8.49-14.59-17.75a39,39,0,0,1,.11-6.21,18.77,18.77,0,0,1,10-14.81c5-2.83,10.46-4.35,15.9-5.77,7.3-1.74,14.59-3.37,21.78-5.23a72.85,72.85,0,0,0,14.38-5.33c.43-.22,1-.33,1.74-.65v2.83c0,6.31-.22,12.74,0,19,.54,14.16-8.39,27.45-22.87,32.45Zm-423.17,3.07a22,22,0,0,0-.22-2.28c-1.63.11-3.27.21-4.79.21-4.68,0-7.19-1.85-8.06-6.42a51.16,51.16,0,0,1-.65-9V154.89a69.28,69.28,0,0,0-1.42-15c-2.18-10.57-7-19.5-15.68-26a52,52,0,0,0-19.18-8.76c-10.89-2.72-21.89-3-33-2.4a76.42,76.42,0,0,0-20.36,4c-16.34,5.88-27.34,16.88-31.69,34a34.81,34.81,0,0,0-1.31,11.21h30.82c.22-1.41.32-2.61.54-3.81,1.31-10.45,7.19-17.2,17.32-19.93a49.93,49.93,0,0,1,20.47-.87,39.51,39.51,0,0,1,9.47,2.73c8,3.48,11.87,10.12,11.33,18.73-.22,4.24-2,7.84-5.66,10a41.68,41.68,0,0,1-7.08,3.27c-6.64,2.18-13.61,3.05-20.47,4.14-8.28,1.31-16.56,2.5-24.62,4.79s-15.89,5.12-22.86,10a36.18,36.18,0,0,0-14.92,22,51.91,51.91,0,0,0-1.2,14.81c.54,17.64,10.24,31.25,26.9,37.35,11,4,22.43,4.68,34,3.16a50.46,50.46,0,0,0,34.63-19.71c.44-.55,1-1.09,1.64-2a31.52,31.52,0,0,0,1,3.26c2.28,8.82,7.84,14.27,16.66,16.56a52.84,52.84,0,0,0,19,1.08c2.5-.21,4.9-1.19,7.29-1.85a2.61,2.61,0,0,0,2.07-3.05c.11-5.55.22-11.21.11-16.77Zm-46.17-29.73c-1.2,11.33-7.84,19.61-18,24.72-9.8,5-20.37,5.88-31,3.38-9-2.18-14-8.49-14.48-17.75a38.06,38.06,0,0,1,.33-7.08c.76-6.1,4.13-10.56,9.36-13.72a46,46,0,0,1,12.31-4.9c6.53-1.63,13.06-3.16,19.49-4.68,7.4-1.74,14.59-3.81,21.45-7.41.11-.11.33,0,.76-.11,0,9.37.77,18.52-.21,27.55ZM2400,83.13a46.33,46.33,0,0,0-.76-6.75,21.87,21.87,0,0,0-26.71-15.59l-.84.24c-9.26,2.61-15.25,9.91-16,20-1.31,17.64,13.72,27.77,28.75,23.74A21.55,21.55,0,0,0,2400,83.13Zm-6.53,8.71c-3.16,6.65-8.61,10-15.79,9.91-7.41-.11-12.74-3.7-15.68-10.56a19.11,19.11,0,0,1-1.53-8.17,19.14,19.14,0,0,1,1.74-8.82c3.27-6.64,8.61-10.13,16-10s12.74,3.92,15.57,10.68a20.13,20.13,0,0,1-.32,17Z" transform="translate(0 0.01)"/>
    <path class="cls-1" d="M2383.65,84.44c3.15-1.09,4.57-3.49,4.35-6.86s-1.85-5.56-4.9-6.21c-4.46-1-8.93-.43-13.5-.43V95.87h3.92V85.64c3.05-.87,4.46.21,5.55,2.5a57,57,0,0,0,3.38,5.55c1.63,2.73,2.07,2.84,5.77,2-2.18-3.48-4.36-6.86-6.53-10.45a9,9,0,0,1,2-.76Zm-10-2.83V74.42c2.39,0,4.79-.22,7.08,0a3.31,3.31,0,0,1,3.26,3.36v.12a3.44,3.44,0,0,1-3.28,3.6h-.09c-2.35.22-4.6.11-7,.11Z" transform="translate(0 0.01)"/>
  </g>
</svg>
