<svg id="Layer_1" data-name="Layer 1" xmlns="http://www.w3.org/2000/svg" viewBox="0 0 587.96 72.42">
  <defs>
    <style>
      .cls-1 {
        fill: #e43c40;
      }

      .cls-2 {
        fill: #f58322;
      }

      .cls-3 {
        fill: #fcb022;
      }

      .cls-4 {
        fill: #64bc4b;
      }

      .cls-5 {
        fill: #1f9cd8;
      }

      .cls-6 {
        fill: #734297;
      }

      .cls-7 {
        fill: #262324;
      }
    </style>
  </defs>
  <title>logo</title>
  <g>
    <path class="cls-1" d="M37,9.08a33.29,33.29,0,0,1,21,8.11,1.51,1.51,0,0,1,.18,2.33L51.4,26.77a1.83,1.83,0,0,1-2.33.08,15.86,15.86,0,0,0-11.3-4.14c-9.4,0-17,7.94-17,17.43A17.2,17.2,0,0,0,37.86,57.31a20.43,20.43,0,0,0,7.67-1.38v-5H40.1a1.57,1.57,0,0,1-1.64-1.55V40.83a1.59,1.59,0,0,1,1.64-1.64H57.44A1.62,1.62,0,0,1,59,40.83L59.08,64a2.16,2.16,0,0,1-.69,1.38A43.66,43.66,0,0,1,37,71,31,31,0,1,1,37,9.08Z" transform="translate(-6.02 -4.79)"/>
    <path class="cls-2" d="M63.14,68l27-58.07A1.75,1.75,0,0,1,91.6,9h.87a1.75,1.75,0,0,1,1.46.94l27,58.07a1.53,1.53,0,0,1-1.47,2.24h-9.58c-1.55,0-2.24-.52-3-2.16l-3.1-6.81H80.3l-3.1,6.9a3.22,3.22,0,0,1-3.11,2.07H64.6A1.52,1.52,0,0,1,63.14,68ZM98.59,49.54,92,35.31H92L85.48,49.54Z" transform="translate(-6.02 -4.79)"/>
    <path class="cls-3" d="M134.57,41.17,115.5,12.36a1.6,1.6,0,0,1,1.38-2.5H128.1a1.72,1.72,0,0,1,1.38.77l12,17.69,12-17.69a1.61,1.61,0,0,1,1.38-.77h11.22a1.6,1.6,0,0,1,1.38,2.5L148.11,41.09V68.61a1.7,1.7,0,0,1-1.64,1.64H136.21a1.64,1.64,0,0,1-1.64-1.64Z" transform="translate(-6.02 -4.79)"/>
    <path class="cls-4" d="M174.34,11.5A1.63,1.63,0,0,1,176,9.86h20.79a19.24,19.24,0,1,1,.09,38.48H187.8V68.61a1.7,1.7,0,0,1-1.64,1.64H176a1.64,1.64,0,0,1-1.64-1.64ZM196,35.74a6.77,6.77,0,0,0,6.81-6.82A6.58,6.58,0,0,0,196,22.54h-8.2v13.2Z" transform="translate(-6.02 -4.79)"/>
    <path class="cls-5" d="M224.9,11.5a1.63,1.63,0,0,1,1.64-1.64h35.72a1.64,1.64,0,0,1,1.64,1.64v9.4a1.65,1.65,0,0,1-1.64,1.64h-23.9v10.7H258a1.7,1.7,0,0,1,1.64,1.64v9.4A1.64,1.64,0,0,1,258,45.92H238.36V57.57h23.9a1.64,1.64,0,0,1,1.64,1.64v9.4a1.65,1.65,0,0,1-1.64,1.64H226.54a1.64,1.64,0,0,1-1.64-1.64Z" transform="translate(-6.02 -4.79)"/>
    <path class="cls-6" d="M275.46,11.5a1.63,1.63,0,0,1,1.64-1.64h25.79A18.76,18.76,0,0,1,321.7,28.49c0,7.94-5.26,14.32-12.77,17.34l11.82,21.92a1.63,1.63,0,0,1-1.47,2.5H307.81a1.58,1.58,0,0,1-1.38-.78L295,46.61H289v22a1.7,1.7,0,0,1-1.64,1.64H277.1a1.64,1.64,0,0,1-1.64-1.64Zm26.31,24.15a6.91,6.91,0,0,0,6.56-6.9,6.61,6.61,0,0,0-6.56-6.55H289V35.65Z" transform="translate(-6.02 -4.79)"/>
    <path class="cls-7" d="M379.07,9A29,29,0,0,1,400,17a1.59,1.59,0,0,1,.09,2.41l-6.73,7a1.5,1.5,0,0,1-2.16,0A17.66,17.66,0,0,0,379.5,22c-9.75,0-16.91,8.11-16.91,17.77s7.25,17.52,17,17.52a18.29,18.29,0,0,0,11.56-4.14,1.7,1.7,0,0,1,2.24.08l6.73,7.16a1.72,1.72,0,0,1-.08,2.33,29.6,29.6,0,0,1-21,8.37,31.06,31.06,0,1,1,0-62.11Z" transform="translate(-6.02 -4.79)"/>
    <path class="cls-7" d="M410.39,11.5A1.63,1.63,0,0,1,412,9.86h10.26a1.69,1.69,0,0,1,1.64,1.64V57.57h20.54a1.63,1.63,0,0,1,1.64,1.64v9.4a1.64,1.64,0,0,1-1.64,1.64H412a1.64,1.64,0,0,1-1.64-1.64Z" transform="translate(-6.02 -4.79)"/>
    <path class="cls-7" d="M506.41,11.5a1.63,1.63,0,0,1,1.64-1.64h20.79a19.24,19.24,0,1,1,.09,38.48h-9.06V68.61a1.7,1.7,0,0,1-1.64,1.64H508.05a1.64,1.64,0,0,1-1.64-1.64Zm21.65,24.24a6.78,6.78,0,0,0,6.82-6.82,6.58,6.58,0,0,0-6.82-6.38h-8.19v13.2Z" transform="translate(-6.02 -4.79)"/>
    <path class="cls-7" d="M553.78,62.05l4.05-7.16a2.23,2.23,0,0,1,2.93-.52c.35.18,6.56,4.75,12.25,4.75,3.45,0,6-2.16,6-5.18,0-3.62-3-6.38-8.89-8.71-7.42-2.93-16.74-8.71-16.74-19.07C553.34,17.62,560,9,573.27,9c9,0,15.88,4.57,18.47,6.47,1,.6.86,2.15.51,2.76l-4.4,6.64c-.6.95-2.15,1.72-2.93,1.12-.78-.43-7.08-5.17-12.34-5.17-3.1,0-5.43,2.07-5.43,4.39,0,3.2,2.59,5.61,9.4,8.37S594,41.52,594,53.25c0,8.89-7.68,17.86-20.36,17.86-11.22,0-17.43-4.66-19.41-6.64C553.34,63.61,553.09,63.26,553.78,62.05Z" transform="translate(-6.02 -4.79)"/>
    <path class="cls-7" d="M470.21,77.19a9.44,9.44,0,0,1-1.59,0,9.11,9.11,0,0,1-8-10.1L466.72,16a12.65,12.65,0,1,1,25.13,3L488,51.19a1.36,1.36,0,1,1-2.71-.32l3.83-32.25a9.93,9.93,0,0,0-19.73-2.34l-6.05,51.09A6.37,6.37,0,0,0,476,68.87l6.05-51.09a2.8,2.8,0,1,0-5.57-.66l-5.77,48.69a1.36,1.36,0,1,1-2.71-.32L473.8,16.8A5.52,5.52,0,0,1,479.94,12a5.54,5.54,0,0,1,4.84,6.14l-6.06,51.09A9.1,9.1,0,0,1,470.21,77.19Z" transform="translate(-6.02 -4.79)"/>
  </g>
</svg>
