<svg id="Layer_1" data-name="Layer 1" xmlns="http://www.w3.org/2000/svg" viewBox="0 0 2400.07 640.11">
  <defs>
    <style>
      .cls-1 {
        fill: #67bc4c;
      }
    </style>
  </defs>
  <title>MICHAELS</title>
  <path class="cls-1" d="M2376.07,260.68h2.48c2.06,0,4.12-.83,4.12-2.89s-1.23-2.89-4.12-2.89a10.13,10.13,0,0,0-2.06,0Zm0,9.9H2372V252.42a37.59,37.59,0,0,1,7.42-.41,10.34,10.34,0,0,1,6.19,1.24,5,5,0,0,1,1.65,4.13,4.53,4.53,0,0,1-3.71,4.12,5,5,0,0,1,3.3,4.54,12.44,12.44,0,0,0,1.24,4.12h-4.54a12.29,12.29,0,0,1-1.65-4.12q0-2.48-3.71-2.48h-2.07Zm3.3-23.93a14.44,14.44,0,0,0,0,28.88,14,14,0,0,0,14-14v-.42a14,14,0,0,0-13.56-14.43h0Zm0-3.71a18.15,18.15,0,1,1-18.56,18.15A18.55,18.55,0,0,1,2379.37,242.94Zm-58.57,77.55c-12.38-40.84-104.37-21.45-83.75,28.05,15.27,37.13,104,59.4,146.45,120.46,66,97.35-80,206.26-190.17,154.28-78-36.71-78.38-93.64-73-116.74,7.43-34.65,46.2-35.48,50.74-16.92,7,33.42-8.25,31.77-7.42,45.38,6.18,55.69,96.11,79.2,144,31.35,64.76-66,8.25-108.9-3.72-117.15-30.52-21.87-72.6-27.64-99.41-63.94-57.76-78.38,31.76-146.86,97.35-127.47,29.7,9.07,53.63,30.94,47.85,59.4-4.54,23.51-23.51,21.45-28.87,3.71m-721.91,45.38c-4.13-8.66-5-6.19-11.55-14-42.91-44.13-86.63-7-114.68,27.64-47,52.39-102.72,236-42.08,203,63.11-30.94,115.5-138.6,142.32-179,26.4-38.36,70.54-20.63,63.94,23.51-2.89,17.33-14.44,79.21-7,118.81,7.42,40.43,51.56-19.39,65.17-35.48.42-10.31-17.32-82.5,28-166.66,66.83-123.34,198-84.56,164.6,23.11a168.75,168.75,0,0,1-103.13,111.38c-19.8,7-33-14-12.38-30.94,15.68-12.38,34.24-19.39,59.41-66,19-35.47-2.48-64.35-37.13-39.6-50.33,36.3-74.67,200.49,2.06,248.75,73,38,130-38,181.51-132-26.81-108.08-21-299.48,54.87-396.84,79.2-103.13,190.58-62.29,192.23,13.61,3.3,126.65-120.45,314.34-133.66,344.46-8.66,19.8-38,11.55-23.92-18.15C2162.4,231.51,2167.76,102,2164.46,73.1c-6.19-53.63-49.5-41.25-90.75,4.54-96.53,135.3-53.63,336.61-22.69,451.71,10.72,40.84,24.75,70.12,23.92,82.5-2.47,39.6-34.24,34.24-49.91,4.12-5.36-10.72-14.85-33-30.94-89.92-76.73,121.28-180.68,129.53-238.85,89.51a166.26,166.26,0,0,1-48.68-57.75c-80,76.32-147.27,24.75-149.33-54-9.49,11.14-52.8,78-114.68,114.27-50.74,29.7-94.88,12.37-99-36.3-5-90.35,83.33-214.51,113.85-247.93,33-36.3,67.66-60.64,110.56-59.4,45,1.65,65.18,59.4,58.58,82.5-5.37,20.63-23.11,18.15-27.64,9.08M755.7,185.6c30.11-2.48,43.31,12.37,42.9,33.82-.83,21.45-24.34,46.21-38.78,51.57a33,33,0,0,1-40.43-13.2A49.5,49.5,0,0,1,755.7,185.6M687.63,311a36.72,36.72,0,0,1,60.23,36.3c-2.48,11.14-.83,6.19-16.09,48.27s-30.11,100.65-28.46,156.76c5.77,87.86,42.9,50.32,48.67,46.2s30.12-30.11,40-92c7.42-47,35.89-158.82,131.59-205.85,65.59-32.18,112.62,2.47,113.86,45.38,1.23,41.25-44.14,32.59-56.11,18.56-8.25-9.49-17.73-27.23-37.12-19-36.3,14.86-85,92.82-83.33,179.86s81.27,70.13,128.7,34.24,78.38-118.39,81.27-138.19c6.6-115.51,84.57-361.78,121.69-401.38,40-43.32,76.73-1.65,67.66,15.26-57.75,141.08-145.62,306.5-146.45,472.75,35.89-104.78,105.2-187.29,176.56-198,66-9.49,77.14,37.12,61.88,76.73s-45,85.8-38,180.68c1.65,22.28,7,59.4-5.36,67.65-30.12,19-44.56-19-45.38-63.94-.83-43.31,27.64-141.08,31.76-157.17,16.5-66-44.55-41.25-62.29-22.27-68.89,71-96.94,191-104.37,214.51C1119.47,634,1084,621.2,1077,589c-.83-4.12-5-12.79-9.9-66C990.35,634,845.56,675.24,804.3,584.9c-74.25,88.27-141.08,64.35-163.77-31.77C617,437.63,671.06,325,687.53,311.4m-99,252.46c10.31,40.42,16.91,63.11,4.12,70.13-23.51,13.61-54.45-47-61.46-94.88C507.26,374.11,555.52,231.37,570,172c28-115.5-37.12-170-116.33-4.12C394.63,292.42,393,370,365.77,490c-20.63,89.51-86.63,84.56-96.95,21-19-124.58-4.12-444.69-69.3-444.69-61.88.41-75.08,322.59-70.13,502.45,2.06,59.81-19,65.59-33,66-45.38,2.06-36.3-263.6-80-330-3.3-4.95-6.19-12.37-8.66-16.5-23.52-33,11.55-35.06,33.83-10.31,45,49.5,38.77,147.27,38.77,195.12C79.51,239.19,87.76-6.67,215.23,2.82c35.06,2.89,70.54,12.38,89.1,176.56,12.38,111.38,10.31,264,14,290.83,8.35-57.73,71.05-471.9,241-465.27,68.89,2.48,78.38,67.66,78.38,99,0,68.06-31.77,129.53-46.21,240.91-8.25,61.88-16.5,167.48-3.3,218.63" transform="translate(0.07 -0.12)"/>
</svg>
