<svg id="Layer_1" data-name="Layer 1" xmlns="http://www.w3.org/2000/svg" viewBox="0 0 600 203.92">
  <defs>
    <style>
      .cls-1 {
        fill: #e43d40;
      }

      .cls-2 {
        fill: #f48220;
      }

      .cls-3 {
        fill: #faae21;
      }

      .cls-4 {
        fill: #66bd4b;
      }

      .cls-5 {
        fill: #209ad6;
      }

      .cls-6 {
        fill: #754397;
      }
    </style>
  </defs>
  <title>RAINBOW</title>
  <g>
    <path class="cls-1" d="M0,42.81c19.33-3.2,38.34-7.55,57.36-12.19,18-4.39,37.23-7.15,55.61-3.53,24.31,4.79,45,20.44,63.22,37.24,30.72,28.33,60.13,62.55,105.86,60.52,29.78-1.33,52.92-18.14,78.34-31.3,28.49-14.73,56.69-30.21,85-45.42,26.75-14.38,51.57-24,82.45-25.27C551.86,21.91,576,24,600,22.55V5.27c-24,1.49-48.14-.64-72.19.31-30.88,1.22-55.7,10.88-82.45,25.27-28.28,15.21-56.48,30.69-85,45.42-25.42,13.16-48.56,30-78.34,31.29-45.73,2-75.14-32.18-105.86-60.51C158,30.25,137.28,14.6,113,9.81,94.59,6.19,75.36,9,57.36,13.34c-19,4.64-38,9-57.36,12.19Z" transform="translate(0 -5.27)"/>
    <path class="cls-2" d="M0,59.8c19.33-3.2,38.34-7.55,57.36-12.18,18-4.39,37.23-7.15,55.61-3.54,24.31,4.79,45,20.45,63.22,37.24,30.72,28.34,60.13,62.55,105.86,60.52,29.78-1.33,52.92-18.14,78.34-31.29,28.49-14.74,56.69-30.21,85-45.42,26.75-14.39,51.57-24,82.45-25.27C551.86,38.9,576,41,600,39.54V22.26c-24,1.5-48.14-.64-72.19.31-30.88,1.23-55.7,10.89-82.45,25.28-28.28,15.21-56.48,30.68-85,45.42-25.42,13.15-48.56,30-78.34,31.29-45.73,2-75.14-32.19-105.86-60.52C158,47.24,137.28,31.59,113,26.8c-18.38-3.62-37.61-.86-55.61,3.53-19,4.64-38,9-57.36,12.19Z" transform="translate(0 -5.27)"/>
    <path class="cls-3" d="M0,76.12c19.33-3.21,38.34-7.55,57.36-12.19,18-4.39,37.23-7.15,55.61-3.53,24.31,4.78,45,20.44,63.22,37.24,30.72,28.33,60.13,62.55,105.86,60.51,29.78-1.32,52.92-18.13,78.34-31.29,28.49-14.74,56.69-30.21,85-45.42,26.75-14.39,51.57-24,82.45-25.27,24.05-1,48.17,1.18,72.19-.32V38.57c-24,1.5-48.14-.64-72.19.32-30.88,1.22-55.7,10.88-82.45,25.27-28.28,15.21-56.48,30.68-85,45.42-25.42,13.15-48.56,30-78.34,31.29-45.73,2-75.14-32.18-105.86-60.52C158,63.56,137.28,47.9,113,43.12c-18.38-3.62-37.61-.86-55.61,3.53-19,4.64-38,9-57.36,12.18Z" transform="translate(0 -5.27)"/>
    <path class="cls-4" d="M0,93.11c19.33-3.2,38.34-7.55,57.36-12.19,18-4.39,37.23-7.15,55.61-3.53,24.31,4.79,45,20.44,63.22,37.24,30.72,28.33,60.13,62.55,105.86,60.52,29.78-1.33,52.92-18.14,78.34-31.3,28.49-14.73,56.69-30.21,85-45.42C472.11,84,496.93,74.38,527.81,73.16c24.05-1,48.17,1.18,72.19-.31V55.57c-24,1.49-48.14-.64-72.19.31-30.88,1.22-55.7,10.88-82.45,25.27-28.28,15.21-56.48,30.69-85,45.42-25.42,13.16-48.56,30-78.34,31.29-45.73,2-75.14-32.18-105.86-60.51C158,80.55,137.28,64.89,113,60.11c-18.38-3.62-37.61-.86-55.61,3.53-19,4.64-38,9-57.36,12.19Z" transform="translate(0 -5.27)"/>
    <path class="cls-5" d="M0,110.07c19.33-3.2,38.34-7.55,57.36-12.19,18-4.39,37.23-7.15,55.61-3.53,24.31,4.79,45,20.44,63.22,37.24,30.72,28.33,60.13,62.55,105.86,60.51,29.78-1.32,52.92-18.13,78.34-31.29,28.49-14.73,56.69-30.21,85-45.42,26.75-14.39,51.57-24,82.45-25.27,24.05-1,48.17,1.18,72.19-.31V72.52c-24,1.5-48.14-.63-72.19.32-30.88,1.22-55.7,10.88-82.45,25.27-28.28,15.21-56.48,30.69-85,45.42-25.42,13.16-48.56,30-78.34,31.29-45.73,2-75.14-32.18-105.86-60.51C158,97.51,137.28,81.85,113,77.07c-18.38-3.62-37.61-.86-55.61,3.53-19,4.64-38,9-57.36,12.19Z" transform="translate(0 -5.27)"/>
    <path class="cls-6" d="M0,127.06c19.33-3.2,38.34-7.55,57.36-12.18,18-4.4,37.23-7.16,55.61-3.54,24.31,4.79,45,20.44,63.22,37.24,30.72,28.33,60.13,62.55,105.86,60.52,29.78-1.33,52.92-18.14,78.34-31.29,28.49-14.74,56.69-30.21,85-45.42,26.75-14.39,51.57-24,82.45-25.28,24.05-1,48.17,1.19,72.19-.31V89.52c-24,1.5-48.14-.64-72.19.31-30.88,1.23-55.7,10.89-82.45,25.28-28.28,15.21-56.48,30.68-85,45.42-25.42,13.15-48.56,30-78.34,31.29-45.73,2-75.14-32.19-105.86-60.52C158,114.5,137.28,98.85,113,94.06c-18.38-3.62-37.61-.86-55.61,3.53-19,4.64-38,9-57.36,12.19Z" transform="translate(0 -5.27)"/>
  </g>
</svg>
