<svg id="Layer_1" data-name="Layer 1" xmlns="http://www.w3.org/2000/svg" viewBox="0 0 2400.05 486">
  <defs>
    <style>
      .cls-1 {
        fill: #f38120;
      }
    </style>
  </defs>
  <title>STAPLES</title>
  <path class="cls-1" d="M2218.25,0c-56,.11-99,14.73-127.53,43.47-33.15,33.42-37.91,76.27-37.81,98.86.23,102,66.09,118.36,135.85,135.7l46.44,11.35c47,11.92,75.52,21.5,75.72,54.43-.07,47.2-46.17,57.14-84.86,57.14h-3.91c-73.74,0-85.73-45-86.33-71.85l-.09-2h-89v2.7c.08,46.26,18.14,154,183.32,154h.87c28.24-.08,169.3-7.68,169.13-151.38-.14-83.66-57.1-109.61-112.78-124l-104-27.27c-21-5.28-43.36-13.62-43.56-45.82.2-38.73,37.2-52.53,72.09-52.53,52.34.17,80.81,22.51,84.81,66.5l.13,1.85h89.41l-.06-2.15C2385,80.31,2340.44,0,2218.24,0ZM1467.92,1.57c-48.12,0-87,37.81-87.07,84.06v335.9c0,25,20.81,51.8,46.47,51.94a44.64,44.64,0,0,1,9.1,0h241.23V387.69H1468.27v-302l3.51-.16L1503,244.7l78.31-18.79L1557,84c-3.07-47.51-40.44-82.38-89-82.48ZM171.23,2.22c-55.52,0-98.15,14.49-126.68,43.12-33.46,33.5-38.33,76.6-38.27,99.29.39,102,66.76,118.16,137,135.39l45.65,11.71c45.41,11.13,75.19,20.94,75.21,54.61C264.2,361,259.67,373,250.72,382c-13.83,13.91-39,21.32-72.91,21.38-78.57-.29-87.95-50.37-88.32-71.88l0-2L0,329.4v2C.38,377.86,19.09,485.89,184.36,486c28.32-.15,169.57-8.17,169.43-151.19-.32-83.82-54.49-109.46-113-124.7L137,182.64c-17.3-4.22-43.5-10.61-43.76-45.23C93.34,98.85,130,85.08,164.3,85.08h.87c77.75,0,83.26,49.92,85.29,68h89.21c-.19-15.22-6.45-150.89-167.49-150.89h-1Zm174.16,10.2-.22,86.11H473.69V473.45h93.4V98.53H695l-.37-86.11Zm412.33,0-151.82,461h97.87L733.49,379H887.34l27,94.47h101L864.09,12.42Zm273.74,0v461H1125V308.89l100-.33c39.15-.1,71-12.29,94.66-36.14,31.66-31.91,42.68-80,42.52-111.48-.35-91.07-51.82-148.5-134.52-148.5H1031.46Zm663.79,0v461h327.52v-86h-236V273.68h207.3V188.79l-207.3.21V97h225.32V12.42ZM1125,96.09h69c53.54,0,75.38,17.6,75.44,60.77.12,11.72.45,36.18-15.71,52.53-10.67,10.8-26.93,16.29-48.48,16.29l-80.24.09V96.08ZM810.09,123.72l51.11,173H758Z" transform="translate(0 -0.03)"/>
</svg>
