<svg id="Layer_1" data-name="Layer 1" xmlns="http://www.w3.org/2000/svg" viewBox="0 0 2400.27 511.91">
  <defs>
    <style>
      .cls-1 {
        fill: #e33d41;
        fill-rule: evenodd;
      }
    </style>
  </defs>
  <title>TARGET</title>
  <g>
    <path class="cls-1" d="M595.36,135.13H701.24V432.71h88V135.13h105.9V59.81H595.36ZM814.59,432.71h92.47l26.35-75.32h107.86l25.37,75.32h91L1029.35,59.83h-96.2Zm201.28-143.09H951.65l32.27-89.75Zm149.21,143.09h85V298.47h61.17c12.9,0,27.89-2.35,35.55,8.15s6.94,28.76,6.67,47.64-.21,38.36,4.08,52.25,11.93,26.2,23,26.2h76.79a73.66,73.66,0,0,1-18.14-33.1c-3-12.5-2.6-26.11-2-41.19s1.2-31.61-.55-45.17-5.84-24.18-12.56-32.57a54.47,54.47,0,0,0-26.29-17.76c16.22-11.63,29.81-27.12,38.09-43.54s11.15-33.73,12.25-50.9.37-34.15-5-50.28S1427.63,86.75,1414,76.26a79.55,79.55,0,0,0-48-16.43H1165.07V432.71Zm183.73-290.37c10.22,6.76,16.46,19.16,16.31,31.72a41,41,0,0,1-17.44,32.57c-10.67,7.34-25,5.78-38.33,5.78H1250V138.72h62.59c12.49,0,26-3.14,36.2,3.62Zm143.86-16.52c-12.78,18.88-22.2,41.05-27.31,69.4s-5.94,62.89-1.34,93,14.61,55.91,26.79,75.91,26.5,34.11,42.11,46.19,32.44,22.09,51.44,27.71a139.87,139.87,0,0,0,59,4.05c19-2.82,35.8-9.71,48.92-15.67s22.51-11,31.32-17l14.93,23.24h55.2l-.13-209.06H1635.47v72.94h74.13a53.81,53.81,0,0,1-5.23,37.83c-6.39,11.46-17.46,20.6-33.15,27.07s-36,10.21-55.75,4.22-38.94-21.73-51.59-39.75-18.71-38.3-21.39-60.76-1.9-47.08,3.47-68.55,15.38-39.82,27.94-53,27.71-21.29,46.78-24.74,42-2.26,57.35,6.29,23,24.42,27.41,34.52,5.6,14.39,5.74,18.81h79.42c-1.18-16.5-5.86-32.63-15.33-51s-23.73-39.11-44-53.7-46.47-23-70.78-26.24a167.09,167.09,0,0,0-66.9,4.42c-20.14,5.58-38.06,14.7-55.07,27a190.31,190.31,0,0,0-45.9,46.87Zm594.86,306.89V357.39H1912.29V270.88l150.61-.31v-68.3H1912.29V135.13h175.24V59.83H1824.62l.43,372.83Zm12.68-297.58h105.91V432.71h88V135.13H2400V59.81h-299.8ZM2336.56,416h4.84V415a2.19,2.19,0,0,1-2.11-1.15l-3.68-6.11c3.5-1.12,4.91-5.62,1.28-8a10,10,0,0,0-5-1H2323v.83c1-.24,2.81.5,2.42,1.8-.07,4.32.21,8.37-.2,13-.76,1-1.13.6-2.13.7V416h8.75v-.94c-1,.23-2.81-.49-2.43-1.79v-5.47h2.43l4.73,8.2Zm-7.17-9.06v-7c2.13-.1,5.44.32,5.44,2.85.18,1,0,3.93-2.5,4.13a20.62,20.62,0,0,1-2.94.06Zm2.1,16.84a16.32,16.32,0,0,0,9.6-3.13c7.81-6.46,9-14.53,3.71-22.8-6.49-7.89-14.59-9.06-23-3.74-7.86,6.46-9,14.52-3.73,22.81a16.43,16.43,0,0,0,13.4,6.87Zm0-1.79a14.54,14.54,0,0,1-8.51-2.79c-7-5.77-8.05-12.94-3.31-20.41,5.73-7,13-8,20.34-3.27,7,5.75,8,13,3.34,20.35A14.61,14.61,0,0,1,2331.49,422Z" transform="translate(0.26 0.15)"/>
    <path class="cls-1" d="M300,180.13A87.17,87.17,0,1,0,331.85,212,87.17,87.17,0,0,0,300,180.13Z" transform="translate(0.26 0.15)"/>
    <path class="cls-1" d="M477.34,127.89C406.7,5.48,250.19-36.49,127.78,34.15S-36.6,261.3,34,383.71,261.19,548.09,383.6,477.45a255.91,255.91,0,0,0,93.74-349.56Zm-75,212.5a168.63,168.63,0,1,1,22.6-84.32,168.62,168.62,0,0,1-22.6,84.32Z" transform="translate(0.26 0.15)"/>
  </g>
</svg>
